<svg
  width="18"
  height="18"
  viewBox="0 0 48 48"
  xmlns="http://www.w3.org/2000/svg"
>
  <path
    fill="#FFC107"
    d="M43.6 20.5H42V20H24v8h11.3C33.7 32.7 29.3 36 24 36
    c-6.6 0-12-5.4-12-12s5.4-12 12-12c3.1 0 5.9 1.2 8 3.1
    l5.7-5.7C34.6 6.1 29.6 4 24 4 12.9 4 4 12.9 4 24s8.9 20
    20 20 20-8.9 20-20c0-1.3-.1-2.7-.4-4z"
  />
  <path
    fill="#FF3D00"
    d="M6.3 14.7l6.6 4.8C14.7 16.2 18.9 12 24 12
    c3.1 0 5.9 1.2 8 3.1l5.7-5.7C34.6 6.1 29.6 4 24 4
    16.3 4 9.6 8.3 6.3 14.7z"
  />
  <path
    fill="#4CAF50"
    d="M24 44c5.2 0 10-2 13.6-5.2l-6.3-5.2
    C29.4 35.5 26.9 36 24 36c-5.3 0-9.8-3.3-11.3-8l-6.6 5.1
    C9.4 39.7 16.1 44 24 44z"
  />
  <path
    fill="#1976D2"
    d="M43.6 20.5H42V20H24v8h11.3c-1.1 3-3.4 5.5-6.3 7.2
    l6.3 5.2C36.6 36.7 40 31 40 24c0-1.3-.1-2.7-.4-4z"
  />
</svg>