
      <svg data-logo="logo" xmlns="http://www.w3.org/2000/svg" viewBox="0 0 247.22000122070312 41" width="247.22000122070312" height="41">
        <g id="logogram" transform="
    translate(0, 0.5)
    rotate(0 20 20)
    
  "><path d="M24 0H16V12.0632C15.9663 14.2434 14.1885 16 12.0005 16H0V24H8.68629C10.808 24 12.8429 23.1571 14.3431 21.6569L21.6569 14.3431C23.1571 12.8429 24 10.808 24 8.68629V0Z" fill="url(#paint0_linear_7697_8782)"/><path d="M16 40H24V27.9368C24.0337 25.7566 25.8115 24 27.9995 24H40V16H31.3137C29.192 16 27.1571 16.8429 25.6569 18.3431L18.3431 25.6569C16.8429 27.1571 16 29.192 16 31.3137V40Z" fill="url(#paint1_linear_7697_8782)"/></g>
        <g id="logotype" transform="translate(46, 1.1050000000000004)"><path fill="#1fadd1" d="M27.18 25.63L28.93 29.90Q27.18 31.09 24.53 31.75Q21.89 32.42 18.91 32.42L18.91 32.42Q15.21 32.42 12.62 31.49Q10.03 30.57 8.70 28.90Q7.37 27.24 7.37 25.11L7.37 25.11Q7.37 23.14 8.45 21.64Q9.54 20.13 11.43 19.40L11.43 19.40Q9.99 18.63 9.20 17.30Q8.41 15.97 8.41 14.32L8.41 14.32Q8.41 12.33 9.64 10.68Q10.87 9.04 13.35 8.06Q15.84 7.08 19.44 7.08L19.44 7.08Q21.82 7.08 24.10 7.55Q26.37 8.02 28.05 8.83L28.05 8.83L26.48 13.17Q23.26 11.66 19.65 11.66L19.65 11.66Q16.92 11.66 15.54 12.49Q14.16 13.31 14.16 14.71L14.16 14.71Q14.16 16.00 15.08 16.69Q16.01 17.37 17.90 17.37L17.90 17.37L24.59 17.37L24.59 21.85L17.55 21.85Q15.42 21.85 14.26 22.59Q13.11 23.32 13.11 24.72L13.11 24.72Q13.11 26.19 14.59 27.01Q16.08 27.84 19.16 27.84L19.16 27.84Q21.33 27.84 23.50 27.26Q25.67 26.68 27.18 25.63L27.18 25.63ZM48.84 32L42.65 32L38.52 26.23L34.25 32L28.30 32L35.54 22.52L28.54 13.17L34.66 13.17L38.66 18.66L42.75 13.17L48.56 13.17L41.56 22.38L48.84 32ZM61.86 12.89Q64.48 12.89 66.64 14.10Q68.79 15.30 70.02 17.49Q71.24 19.68 71.24 22.59L71.24 22.59Q71.24 25.49 70.02 27.68Q68.79 29.86 66.64 31.07Q64.48 32.28 61.86 32.28L61.86 32.28Q58.26 32.28 56.19 30.00L56.19 30.00L56.19 38.79L50.73 38.79L50.73 13.17L55.95 13.17L55.95 15.34Q57.98 12.89 61.86 12.89L61.86 12.89ZM60.92 27.80Q63.02 27.80 64.36 26.38Q65.71 24.96 65.71 22.59L65.71 22.59Q65.71 20.20 64.36 18.79Q63.02 17.37 60.92 17.37L60.92 17.37Q58.81 17.37 57.47 18.79Q56.12 20.20 56.12 22.59L56.12 22.59Q56.12 24.96 57.47 26.38Q58.81 27.80 60.92 27.80L60.92 27.80ZM83.59 27.91Q85.06 27.91 86.20 27.47Q87.34 27.03 88.32 26.09L88.32 26.09L91.23 29.23Q88.56 32.28 83.46 32.28L83.46 32.28Q80.27 32.28 77.82 31.04Q75.37 29.80 74.04 27.59Q72.71 25.38 72.71 22.59L72.71 22.59Q72.71 19.82 74.02 17.60Q75.34 15.38 77.63 14.13Q79.92 12.89 82.79 12.89L82.79 12.89Q85.48 12.89 87.69 14.03Q89.90 15.16 91.21 17.32Q92.52 19.47 92.52 22.41L92.52 22.41L78.59 25.11Q79.19 26.50 80.46 27.20Q81.74 27.91 83.59 27.91L83.59 27.91ZM82.79 17.02Q80.73 17.02 79.43 18.35Q78.14 19.68 78.06 22.02L78.06 22.02L87.23 20.24Q86.85 18.77 85.66 17.89Q84.47 17.02 82.79 17.02L82.79 17.02ZM106.87 12.89Q110.37 12.89 112.52 14.99Q114.68 17.09 114.68 21.22L114.68 21.22L114.68 32L109.22 32L109.22 22.06Q109.22 19.82 108.24 18.72Q107.26 17.61 105.40 17.61L105.40 17.61Q103.34 17.61 102.11 18.89Q100.89 20.17 100.89 22.69L100.89 22.69L100.89 32L95.43 32L95.43 13.17L100.64 13.17L100.64 15.38Q101.73 14.18 103.34 13.54Q104.95 12.89 106.87 12.89L106.87 12.89ZM125.18 32.28Q122.83 32.28 120.59 31.70Q118.35 31.13 117.02 30.25L117.02 30.25L118.84 26.33Q120.10 27.13 121.89 27.64Q123.67 28.15 125.39 28.15L125.39 28.15Q128.85 28.15 128.85 26.43L128.85 26.43Q128.85 25.63 127.91 25.28Q126.96 24.93 125.00 24.68L125.00 24.68Q122.69 24.34 121.19 23.88Q119.68 23.42 118.58 22.27Q117.48 21.11 117.48 18.98L117.48 18.98Q117.48 17.20 118.51 15.81Q119.54 14.43 121.52 13.66Q123.50 12.89 126.19 12.89L126.19 12.89Q128.19 12.89 130.16 13.33Q132.14 13.76 133.44 14.53L133.44 14.53L131.62 18.42Q129.13 17.02 126.19 17.02L126.19 17.02Q124.44 17.02 123.57 17.51Q122.69 18 122.69 18.77L122.69 18.77Q122.69 19.64 123.64 19.99Q124.58 20.34 126.65 20.66L126.65 20.66Q128.96 21.04 130.43 21.48Q131.90 21.92 132.98 23.07Q134.07 24.23 134.07 26.29L134.07 26.29Q134.07 28.04 133.02 29.41Q131.97 30.77 129.95 31.53Q127.94 32.28 125.18 32.28L125.18 32.28ZM146.14 27.91Q147.61 27.91 148.75 27.47Q149.89 27.03 150.87 26.09L150.87 26.09L153.77 29.23Q151.11 32.28 146.00 32.28L146.00 32.28Q142.82 32.28 140.37 31.04Q137.92 29.80 136.59 27.59Q135.26 25.38 135.26 22.59L135.26 22.59Q135.26 19.82 136.57 17.60Q137.88 15.38 140.17 14.13Q142.47 12.89 145.34 12.89L145.34 12.89Q148.03 12.89 150.24 14.03Q152.44 15.16 153.75 17.32Q155.07 19.47 155.07 22.41L155.07 22.41L141.14 25.11Q141.73 26.50 143.01 27.20Q144.29 27.91 146.14 27.91L146.14 27.91ZM145.34 17.02Q143.27 17.02 141.98 18.35Q140.68 19.68 140.61 22.02L140.61 22.02L149.78 20.24Q149.40 18.77 148.21 17.89Q147.02 17.02 145.34 17.02L145.34 17.02ZM170.99 12.05L166.76 12.05L166.76 27.45L170.99 27.45L170.99 32L156.82 32L156.82 27.45L161.09 27.45L161.09 12.05L156.82 12.05L156.82 7.50L170.99 7.50L170.99 12.05ZM199.59 19.75Q199.59 22.90 198.25 25.51Q196.93 28.11 194.53 29.86Q192.13 31.61 189.01 32.17L189.01 32.17L189.01 36.73L183.31 36.73L183.31 32.17Q180.23 31.61 177.83 29.86Q175.44 28.11 174.10 25.49Q172.78 22.86 172.78 19.75L172.78 19.75Q172.78 16.14 174.51 13.26Q176.24 10.37 179.30 8.72Q182.37 7.08 186.18 7.08L186.18 7.08Q190.00 7.08 193.04 8.72Q196.09 10.37 197.84 13.26Q199.59 16.14 199.59 19.75L199.59 19.75ZM188.77 27.20Q191.12 26.47 192.48 24.49Q193.84 22.52 193.84 19.75L193.84 19.75Q193.84 17.47 192.85 15.69Q191.85 13.90 190.10 12.91Q188.35 11.91 186.18 11.91L186.18 11.91Q184.01 11.91 182.26 12.91Q180.51 13.90 179.51 15.69Q178.51 17.47 178.51 19.75L178.51 19.75Q178.51 22.52 179.86 24.48Q181.21 26.43 183.52 27.20L183.52 27.20L183.52 22.16L188.77 22.16L188.77 27.20Z"/></g>
        <defs xmlns="http://www.w3.org/2000/svg">
<linearGradient id="paint0_linear_7697_8782" x1="20" y1="-0.997096" x2="20" y2="33.7931" gradientUnits="userSpaceOnUse">
<stop stop-color="#75D8FC"/>
<stop offset="1" stop-color="#0072E5"/>
</linearGradient>
<linearGradient id="paint1_linear_7697_8782" x1="20" y1="-0.997096" x2="20" y2="33.7931" gradientUnits="userSpaceOnUse">
<stop stop-color="#75D8FC"/>
<stop offset="1" stop-color="#0072E5"/>
</linearGradient>
</defs>
      </svg>
    